<?xml version="1.0" encoding="utf-8"?>
<!-- Generator: Adobe Illustrator 23.0.1, SVG Export Plug-In . SVG Version: 6.00 Build 0)  -->
<svg version="1.1" id="Capa_1" xmlns="http://www.w3.org/2000/svg" xmlns:xlink="http://www.w3.org/1999/xlink" x="0px" y="0px"
	 viewBox="0 0 44 44" style="enable-background:new 0 0 44 44;" xml:space="preserve">
<style type="text/css">
	.st0{fill:#FFFFFF;}
</style>
<path class="st0" d="M11.8,26l-2.2,2.3c-0.5-2.9-0.7-7.5,2.2-11.2V26z M11.4,30.1c2.7,0.5,7.2,0.7,10.6-2.3h-8.5
	C13.5,27.8,11.4,30.1,11.4,30.1z M16.7,13.9c-0.8,0.2-1.7,0.5-2.4,0.9v8.5l2.4-2.6C16.7,20.7,16.7,13.9,16.7,13.9z M19.2,13.6v4.6
	l4-4.2C22.1,13.7,20.7,13.5,19.2,13.6z M16,25.2h8.1c0.4-0.8,0.7-1.7,0.9-2.6h-6.6L16,25.2z M44,19.1V25c0,4.3-3.3,7.8-7.4,7.8h-1.8
	v2.9c0,4.6-3.6,8.3-7.9,8.3h-19C3.6,44,0,40.3,0,35.7V0h34.8v11.4h1.8C40.7,11.4,44,14.9,44,19.1z M27.8,20c0.1-2.6-0.4-5-0.8-6.4
	c-0.2-0.9-0.4-1.4-0.4-1.4s-0.5-0.2-1.4-0.4c-1.4-0.4-3.6-0.9-6.1-0.8c-0.8,0-1.7,0.1-2.5,0.3c-0.8,0.2-1.6,0.4-2.4,0.7
	c-0.9,0.4-1.7,0.8-2.5,1.5c-0.6,0.5-1.1,1-1.6,1.6c-4.5,5.4-3.4,12.5-2.6,15.5C7.7,31.5,7.9,32,7.9,32s0.5,0.2,1.4,0.4
	c2.8,0.8,9.6,2,14.7-2.7c0.6-0.5,1.1-1.1,1.5-1.7c0.6-0.8,1-1.7,1.4-2.6c0.3-0.8,0.5-1.7,0.7-2.6C27.7,21.7,27.8,20.9,27.8,20z
	 M41,19.1c0-2.6-2-4.6-4.4-4.6h-1.8v15.1h1.8c2.4,0,4.4-2.1,4.4-4.6V19.1z M21,20h4.4c0-1.6-0.1-3-0.4-4.2L21,20z"/>
</svg>
